<?xml version="1.0" encoding="UTF-8"?>
<!-- Created with Inkscape (http://www.inkscape.org/) -->
<svg width="70.273mm" height="28.902mm" version="1.1" viewBox="0 0 70.273 28.902" xmlns="http://www.w3.org/2000/svg">
 <g transform="translate(-32.62 -67.758)">
  <g transform="translate(1.0583 .52917)" fill="#fff">
   <g stroke-width=".17456">
    <path class="st3" d="m66.395 78.918h-2.0581l-0.30024 2.2728h-3.4737l2.1872-12.31h5.1478l2.2728 12.31h-3.4964zm-1.2656-7.3786-0.5359 5.0605h1.5449l-0.66507-5.0605z"/>
    <path class="st3" d="m70.792 68.881h3.5593v9.9935h3.1735v2.3164h-6.7345v-12.31z"/>
    <path class="st3" d="m78.577 68.881h3.5593v12.31h-3.5593z"/>
    <path class="st3" d="m83.98 68.881h6.5425v2.3164h-2.9815v2.3164h2.4665v2.3164h-2.4665v3.0461h3.067v2.3164h-6.6263v-12.312z"/>
    <path class="st3" d="m95.026 75.186v6.0048h-3.3463v-12.31l2.9885-0.0018 2.3304 5.9333v-5.9298h3.3027v12.31h-2.9169z"/>
   </g>
   <g transform="matrix(.17456 0 0 .17456 -6.0088 -31.524)">
    <path class="st3" d="m406.48 697.63h-8.35v28.26h-20.39v-70.52h34.77l13.64 10.32v18.31l-10.08 7 10.08 6.63v28.26h-19.66v-28.26zm0-29h-8.35v15.73h8.35z"/>
    <path class="st3" d="m449.6 655.36h21.87l13.64 10.32v50l-12.9 10.2h-22.61l-13.39-10.2v-50zm7.01 13.27v43.98h8.35v-43.98z"/>
    <path class="st3" d="m508.58 655.36h21.87l13.64 10.32v50l-12.9 10.2h-22.61l-13.39-10.2v-50zm7 13.27v43.98h8.35v-43.98z"/>
    <path class="st3" d="m587.35 689.4 6.36-34.04h24.09v70.52h-18.55v-44.72h-0.98l-8.35 44.72h-7.62l-8.48-44.72h-0.98v44.72h-18.44v-70.52h23.77l7.2 34.03z"/>
   </g>
  </g>
  <g transform="matrix(.2181 0 0 .2181 23.656 66.972)">
   <g fill="#fff" stroke="#000" stroke-width=".31525px">
    <path d="m53.082 55.169-10.471 7.0784s-1.2728 0.9648-1.3565 2.8324c0 0 0.92043 18.422 4.9535 21.1 0 0 1.5671 3.1095 8.2874 3.7129l2.1965-0.078z"/>
    <path d="m135.22 55.169 10.471 7.0784s1.2729 0.9648 1.3566 2.8324c0 0-0.92046 18.422-4.9535 21.1 0 0-1.5671 3.1095-8.2874 3.7129l-2.1965-0.078z"/>
    <path d="m94.134 135.95c-4.7069 0.0982-5.8682-0.49048-5.8682-0.49048-1.8047-0.80836-2.6648-1.5416-2.6648-1.5416l-15.881-12.381c-1.4208-0.52229-3.2557-3.2458-3.2557-3.2458l-2.7462-3.7154c-2.6919-2.3591-3.717-6.1153-3.717-6.1153l-9.4283-36.968c-6.2151-6.3626-1.1641-14.646-1.1641-14.646s-2.3475-53.163 44.725-53.087c47.073-0.07617 44.721 53.087 44.721 53.087s5.054 8.2834-1.1611 14.646l-9.4283 36.968s-1.025 3.7562-3.717 6.1153l-2.7462 3.7154s-1.8348 2.7235-3.2556 3.2458l-15.881 12.381s-0.86006 0.73329-2.6648 1.5416c0 0-1.1613 0.58864-5.8682 0.49048"/>
   </g>
   <path class="st2" d="m90.883 101.21-30.363-30.363c-0.9294-0.92937-2.53-0.43315-2.7537 0.86342-1.6637 9.6007-3.8466 38.615 32.462 31.633 0.98962-0.19217 1.3682-1.4199 0.65397-2.1341z" clip-rule="evenodd" fill="#7506c9" fill-rule="evenodd" stroke="#000" stroke-width=".86054"/>
   <path d="m58.756 89.954c-0.13774-0.0359 0.05236 0.65088 1.1647 3.2069 4.148 8.5679 11.486 10.572 18.2 11.029 6.7144 0.45725 12.239-1.3161 12.239-1.3161 0.80359-0.44493 0.52282-1.6592-0.24461-1.2021 0 0-5.4625 1.5256-11.897 1.0874-6.4343-0.4382-14.872-3.5334-18.566-11.518 0 0-0.71932-1.2408-0.89638-1.2869z" color="#000000" fill="#808080" stroke-width=".28684" style="-inkscape-stroke:none"/>
   <path class="st2" d="m97.498 101.21 30.363-30.363c0.92938-0.92937 2.53-0.43315 2.7537 0.86342 1.6637 9.6007 3.8466 38.615-32.462 31.633-0.98962-0.19217-1.3654-1.4199-0.654-2.1341z" clip-rule="evenodd" fill="#7506c9" fill-rule="evenodd" stroke="#000" stroke-width=".86054"/>
   <path d="m129.6 89.954c0.13776-0.0359-0.0523 0.65088-1.1648 3.2069-4.148 8.5679-11.486 10.572-18.2 11.029-6.7144 0.45725-12.239-1.3161-12.239-1.3161-0.80359-0.44493-0.52284-1.6592 0.24461-1.2021 0 0 5.4625 1.5256 11.897 1.0874 6.4343-0.4382 14.872-3.5334 18.566-11.518 0 0 0.7193-1.2408 0.89639-1.2869z" color="#000000" fill="#808080" stroke-width=".28684" style="-inkscape-stroke:none"/>
  </g>
 </g>
 <style>.st0{fill:none}.st1{fill:#fff}.st2{font-family:'Raleway-Thin'}.st6{fill:none;stroke:#000;stroke-width:3;stroke-miterlimit:10}</style>
</svg>
